<svg width="64" height="30" viewBox="0 0 64 30" fill="none" xmlns="http://www.w3.org/2000/svg">
<path d="M8.10529 12.3821C8.3751 11.9437 8.76295 11.5896 9.26885 11.3197C9.77474 11.0499 10.3537 10.915 11.0058 10.915C11.7815 10.915 12.4841 11.1117 13.1137 11.5052C13.7432 11.8987 14.2379 12.4608 14.5976 13.1916C14.9686 13.9223 15.1541 14.7711 15.1541 15.7379C15.1541 16.7047 14.9686 17.5591 14.5976 18.3011C14.2379 19.0318 13.7432 19.5996 13.1137 20.0043C12.4841 20.3978 11.7815 20.5945 11.0058 20.5945C10.3425 20.5945 9.7635 20.4652 9.26885 20.2067C8.77419 19.9368 8.38634 19.5827 8.10529 19.1443V20.4596H5.22168V7.98081H8.10529V12.3821ZM12.2199 15.7379C12.2199 15.0184 12.0176 14.4563 11.6128 14.0516C11.2194 13.6356 10.7303 13.4276 10.1457 13.4276C9.57239 13.4276 9.08335 13.6356 8.67864 14.0516C8.28516 14.4676 8.08842 15.0353 8.08842 15.7548C8.08842 16.4743 8.28516 17.042 8.67864 17.458C9.08335 17.8739 9.57239 18.0819 10.1457 18.0819C10.7191 18.0819 11.2081 17.8739 11.6128 17.458C12.0176 17.0308 12.2199 16.4574 12.2199 15.7379Z" fill="#6CB87F"/>
<path d="M21.1161 17.4273C20.9923 16.675 21.0236 15.9914 21.21 15.3767C21.4051 14.7606 21.7224 14.2591 22.1619 13.8723C22.6014 13.4855 23.123 13.2424 23.7267 13.1431C24.2428 13.0582 24.7106 13.089 25.1301 13.2355C25.5583 13.3806 25.9055 13.6066 26.1716 13.9132L26.001 12.8765L28.2449 12.5073L29.4499 19.8296L27.206 20.1989L27.0354 19.1622C26.8728 19.5394 26.6119 19.8653 26.2528 20.1401C25.9025 20.4134 25.4692 20.5925 24.953 20.6774C24.3582 20.7753 23.7906 20.7115 23.2503 20.4859C22.7085 20.2516 22.2465 19.8739 21.8643 19.3527C21.4893 18.8214 21.2399 18.1796 21.1161 17.4272L21.1161 17.4273ZM26.6035 16.5378C26.5113 15.9779 26.2812 15.562 25.913 15.2902C25.5535 15.0169 25.1507 14.9169 24.7045 14.9903C24.2584 15.0637 23.9044 15.2882 23.6428 15.6637C23.3884 16.0291 23.3073 16.4917 23.3994 17.0516C23.4916 17.6115 23.7181 18.0324 24.079 18.3145C24.4472 18.5864 24.8544 18.6856 25.3005 18.6122C25.7467 18.5388 26.0962 18.315 26.3492 17.9409C26.6108 17.5654 26.6956 17.0977 26.6035 16.5378V16.5378Z" fill="#6CB87F"/>
<path d="M39.4724 10.1567C40.6696 10.4092 41.54 11.0011 42.0837 11.9323C42.6422 12.854 42.7784 13.9928 42.4924 15.3488L41.2326 21.3226L38.1175 20.6657L39.2884 15.1134C39.4326 14.4292 39.3676 13.8605 39.0932 13.407C38.8188 12.9536 38.3822 12.6638 37.7836 12.5375C37.185 12.4113 36.6687 12.5002 36.2345 12.8042C35.8004 13.1082 35.5112 13.6022 35.3669 14.2864L34.196 19.8387L31.0625 19.1779L33.2188 8.95279L36.3523 9.61361L36.0664 10.9696C36.4793 10.5846 36.9816 10.3205 37.5732 10.1773C38.1674 10.0219 38.8005 10.015 39.4724 10.1566V10.1567Z" fill="#6CB87F"/>
<path d="M45.8942 10.0716C45.3883 10.0716 44.9724 9.92542 44.6463 9.63313C44.3316 9.32959 44.1742 8.95861 44.1742 8.52016C44.1742 8.07048 44.3316 7.69949 44.6463 7.4072C44.9724 7.10366 45.3883 6.9519 45.8942 6.9519C46.3889 6.9519 46.7936 7.10366 47.1084 7.4072C47.4344 7.69949 47.5974 8.07048 47.5974 8.52016C47.5974 8.95861 47.4344 9.32959 47.1084 9.63313C46.7936 9.92542 46.3889 10.0716 45.8942 10.0716ZM47.3445 21.6735C47.3445 22.8314 47.0522 23.6633 46.4676 24.1692C45.883 24.6864 45.0679 24.9449 44.0224 24.9449H42.8926V22.4998H43.584C43.8987 22.4998 44.1236 22.4379 44.2585 22.3143C44.3934 22.1906 44.4609 21.9882 44.4609 21.7072V11.0496H47.3445V21.6735Z" fill="#6CB87F"/>
<path d="M48.8467 15.7378C48.8467 14.771 49.0266 13.9222 49.3863 13.1915C49.7573 12.4607 50.2576 11.8986 50.8871 11.5051C51.5167 11.1117 52.2193 10.9149 52.995 10.9149C53.6583 10.9149 54.2373 11.0499 54.7319 11.3197C55.2378 11.5895 55.6257 11.9436 55.8955 12.382V11.0498H58.7791V20.4595H55.8955V19.1273C55.6144 19.5658 55.221 19.9199 54.7151 20.1897C54.2204 20.4595 53.6415 20.5944 52.9782 20.5944C52.2137 20.5944 51.5167 20.3977 50.8871 20.0042C50.2576 19.5995 49.7573 19.0318 49.3863 18.301C49.0266 17.559 48.8467 16.7046 48.8467 15.7378V15.7378ZM55.8955 15.7547C55.8955 15.0352 55.6931 14.4675 55.2884 14.0515C54.8949 13.6356 54.4115 13.4276 53.8382 13.4276C53.2648 13.4276 52.7758 13.6356 52.3711 14.0515C51.9776 14.4562 51.7809 15.0183 51.7809 15.7378C51.7809 16.4573 51.9776 17.0307 52.3711 17.4579C52.7758 17.8738 53.2648 18.0818 53.8382 18.0818C54.4115 18.0818 54.8949 17.8738 55.2884 17.4579C55.6931 17.0419 55.8955 16.4742 55.8955 15.7547Z" fill="#6CB87F"/>
<path d="M16.7266 21.6733C16.7266 22.8312 17.0189 23.6632 17.6034 24.169C18.188 24.6862 19.0031 24.9448 20.0486 24.9448H21.1784V22.4996H20.4871C20.1723 22.4996 19.9474 22.4377 19.8125 22.3141C19.6776 22.1905 19.6102 21.9881 19.6102 21.707V11.0495H16.7266V21.6733Z" fill="#6CB87F"/>
<path d="M42.8932 22.4997H21.1787V24.9449H42.8932V22.4997Z" fill="#6CB87F"/>
<path d="M22.4274 5.05504C22.3842 5.05518 22.3376 5.05537 22.2874 5.05924C21.9187 5.07716 21.5212 5.15988 21.2719 5.48745C20.9716 5.88205 20.7988 6.37713 20.9178 6.8838C21.0365 7.38899 21.4215 7.84163 22.0479 8.21972C22.5665 8.53267 22.9813 9.1218 23.3489 9.72722C23.7151 10.3303 24.0084 10.9578 24.5236 11.3089C25.6025 12.044 26.4489 12.2032 27.1859 12.0918C27.7907 12.0004 28.2927 11.7687 28.8492 11.6101C29.5583 12.7783 30.0165 14.0531 30.1865 15.3318L30.2202 15.5933C30.2225 15.6116 30.2285 15.6294 30.2377 15.6454C30.2469 15.6614 30.2592 15.6755 30.2738 15.6868C30.2885 15.6981 30.3053 15.7063 30.3231 15.7111C30.341 15.7159 30.3596 15.7172 30.378 15.7147L30.9022 15.6448C30.9206 15.6423 30.9383 15.6363 30.9543 15.627C30.9703 15.6177 30.9843 15.6053 30.9955 15.5906C31.0068 15.5759 31.015 15.5591 31.0197 15.5411C31.0244 15.5232 31.0255 15.5046 31.023 15.4863L30.9866 15.2248C30.8005 13.8257 30.3001 12.4384 29.5264 11.171C29.8603 10.8073 30.118 10.3811 30.1241 9.89606C30.1312 9.33062 29.9367 8.76747 29.6328 8.25613C29.0257 7.2346 27.9781 6.3678 26.8531 6.27105C26.0692 6.20363 25.7877 6.15466 25.6208 6.07481C25.4539 5.99495 25.3435 5.85062 24.9278 5.58214C24.9264 5.58094 24.925 5.57977 24.9236 5.57862C24.8962 5.56211 24.8664 5.54943 24.8358 5.54016C24.8307 5.53664 24.1727 5.30718 23.4278 5.16487C23.1026 5.10268 22.7598 5.05582 22.4315 5.05645C22.4301 5.05643 22.4287 5.05643 22.4274 5.05645L22.4274 5.05504ZM22.4287 5.33636C22.73 5.33636 23.059 5.38013 23.3757 5.44066C24.0981 5.57869 24.748 5.80707 24.748 5.80707C24.7498 5.80711 24.7516 5.80711 24.7535 5.80707C24.7626 5.81059 24.7707 5.81373 24.7789 5.81865C24.779 5.81876 24.7794 5.81855 24.7796 5.81865C25.1687 6.0709 25.2688 6.21546 25.4994 6.32577C25.7312 6.43668 26.0394 6.48093 26.8285 6.54873C27.8227 6.63424 28.8219 7.43912 29.3913 8.39731C29.6756 8.87573 29.8491 9.39213 29.8428 9.8904C29.8377 10.2958 29.6149 10.6805 29.2884 11.0239C29.2879 11.0239 29.2874 11.0239 29.287 11.0239C29.2629 11.0496 29.248 11.077 29.2383 11.098C29.2285 11.1191 29.2242 11.1424 29.2256 11.1656C29.227 11.1888 29.2342 11.2114 29.2465 11.2311C30.0285 12.487 30.5234 13.871 30.708 15.2596L30.7252 15.3817L30.4809 15.4147L30.4651 15.2926C30.2853 13.9403 29.8046 12.5921 29.0427 11.3663C29.0269 11.3408 29.0033 11.3211 28.9753 11.3099C28.9474 11.2988 28.9167 11.297 28.8876 11.3046C28.2536 11.4708 27.7368 11.722 27.1434 11.8117C26.4748 11.9127 25.7203 11.7825 24.6814 11.0747C24.2582 10.7863 23.9641 10.1971 23.5891 9.57957C23.2155 8.96427 22.7871 8.33496 22.1934 7.97669C21.608 7.62333 21.2871 7.22653 21.1909 6.81707C21.0951 6.40894 21.2318 6.002 21.4956 5.65539C21.671 5.42489 21.9643 5.35414 22.3011 5.33769C22.3025 5.33771 22.3039 5.33771 22.3053 5.33769C22.3416 5.33418 22.3831 5.33418 22.4288 5.33418L22.4287 5.33636ZM22.4294 5.58133C22.3832 5.58133 22.3463 5.58484 22.3203 5.58484C22.318 5.58479 22.3158 5.58479 22.3135 5.58484C22.1613 5.59222 22.0336 5.61646 21.9306 5.65209C21.8275 5.68789 21.7472 5.73098 21.6897 5.80647C21.4568 6.11261 21.3557 6.44051 21.4317 6.76432C21.5084 7.09059 21.7707 7.43579 22.3203 7.76753C22.9769 8.16382 23.4221 8.83258 23.8004 9.4555C23.9902 9.7681 24.1687 10.0676 24.3363 10.3152C24.5039 10.5629 24.6548 10.7591 24.8221 10.8731C25.8279 11.5585 26.4926 11.6622 27.1057 11.5696C27.598 11.4952 28.0816 11.2838 28.6598 11.1201C28.6814 11.114 28.7013 11.1029 28.7177 11.0875C28.7341 11.0722 28.7466 11.0531 28.7542 11.0319C28.7617 11.0108 28.764 10.9881 28.761 10.9658C28.7579 10.9436 28.7496 10.9223 28.7367 10.904C28.126 10.0304 27.3655 9.23172 26.4634 8.55452C26.4391 8.53626 26.4094 8.52642 26.379 8.52643H26.2836L24.4426 8.51554C24.4424 8.51554 24.4422 8.51554 24.4419 8.51554H24.3205V8.27058H24.444L25.5981 8.2762C25.6288 8.27639 25.6587 8.26655 25.6832 8.24819C25.7077 8.22983 25.7256 8.20397 25.7341 8.17452C25.7426 8.14506 25.7412 8.11361 25.7301 8.08501C25.7191 8.05642 25.699 8.03222 25.6729 8.0161C24.9365 7.56181 24.1215 7.18321 23.2315 6.90177C23.2311 6.90176 23.2306 6.90176 23.2302 6.90177L23.1135 6.86608L23.1869 6.6321L23.3043 6.66984C23.3045 6.66984 23.3047 6.66984 23.305 6.66984C25.033 7.21628 26.4837 8.11851 27.6354 9.23679C27.6568 9.25781 27.6845 9.27141 27.7143 9.27555C27.744 9.2797 27.7744 9.27418 27.8008 9.25982C27.8272 9.24546 27.8483 9.22303 27.861 9.19579C27.8737 9.16855 27.8774 9.13794 27.8714 9.10847L27.6504 8.00992L27.6264 7.89122L27.8666 7.84318L27.8906 7.96262L28.2508 9.75347L28.2783 9.89139C28.283 9.91494 28.2936 9.93692 28.3092 9.9552C28.555 10.2429 28.7835 10.5409 28.994 10.8479C29.0059 10.8652 29.0215 10.8796 29.0397 10.8901C29.0579 10.9006 29.0782 10.9068 29.0991 10.9084C29.12 10.91 29.1411 10.9068 29.1606 10.8992C29.1802 10.8916 29.1978 10.8798 29.2122 10.8645C29.4725 10.5876 29.5932 10.255 29.5978 9.89216C29.6033 9.4546 29.4483 8.97332 29.1813 8.52395C28.6468 7.62461 27.6808 6.87342 26.8065 6.79824C25.2328 6.66295 25.3928 6.51795 24.667 6.04346C24.6572 6.03688 24.6466 6.0316 24.6354 6.02768C24.5537 5.99992 23.9803 5.80703 23.329 5.68249C23.0223 5.62386 22.7057 5.58375 22.4301 5.58368H22.4294L22.4294 5.58133ZM22.4281 5.86197C22.4285 5.86197 22.429 5.86197 22.4294 5.86197C22.6777 5.86197 22.9822 5.89893 23.2768 5.95529C23.8991 6.07424 24.4481 6.25865 24.5325 6.28739C25.1969 6.72682 25.2056 6.93957 26.7818 7.07511C27.122 7.10427 27.5098 7.29414 27.8762 7.55131L27.433 7.64051C27.4148 7.6441 27.3975 7.65126 27.3821 7.66156C27.3667 7.67187 27.3534 7.68512 27.3432 7.70055C27.3329 7.71598 27.3258 7.7333 27.3222 7.7515C27.3187 7.76969 27.3188 7.7884 27.3225 7.80656L27.3746 8.06319L27.5222 8.79464C26.3879 7.76827 25.0232 6.91625 23.3908 6.39992H23.39L23.1389 6.31895C23.1213 6.3133 23.1026 6.31121 23.0842 6.31278C23.0657 6.31434 23.0477 6.31954 23.0313 6.32809C23.0148 6.33663 23.0002 6.34835 22.9883 6.36257C22.9764 6.37678 22.9674 6.3932 22.9619 6.4109L22.8034 6.91455C22.7978 6.9322 22.7958 6.95079 22.7975 6.96922C22.7992 6.98766 22.8045 7.00559 22.8131 7.02197C22.8217 7.03836 22.8334 7.05286 22.8477 7.06469C22.8619 7.07651 22.8783 7.08543 22.896 7.09089L23.1478 7.16843C23.8048 7.37627 24.3776 7.68286 24.9483 7.98977L24.4447 7.98625C24.4445 7.98625 24.4442 7.98625 24.444 7.98625H24.1798C24.1613 7.98623 24.143 7.98987 24.126 7.99693C24.1089 8.00399 24.0934 8.01436 24.0803 8.02742C24.0673 8.04048 24.0569 8.05598 24.0498 8.07305C24.0428 8.09012 24.0391 8.1084 24.0391 8.12687V8.6532C24.0391 8.67168 24.0428 8.68995 24.0498 8.70702C24.0569 8.7241 24.0672 8.73963 24.0803 8.7527C24.0934 8.76576 24.1089 8.77612 24.126 8.78319C24.143 8.79025 24.1613 8.79388 24.1798 8.79387H24.4412L26.2822 8.80476C26.2825 8.80476 26.2827 8.80476 26.2829 8.80476H26.3262C27.1329 9.41573 27.8125 10.1311 28.3778 10.9065C27.8861 11.0589 27.4432 11.2312 27.0631 11.2887C26.5061 11.3729 25.9507 11.2999 24.9799 10.6382C24.8796 10.5698 24.7302 10.3918 24.5696 10.1544C24.4089 9.9171 24.231 9.61997 24.0405 9.30635C23.6582 8.67682 23.1931 7.96273 22.4658 7.52369C21.9558 7.21593 21.7588 6.92673 21.7048 6.69686C21.6503 6.4646 21.7131 6.23685 21.9134 5.97364C21.9137 5.97332 21.9518 5.93954 22.0232 5.91463C22.0938 5.89004 22.196 5.86977 22.3237 5.86317C22.3659 5.86296 22.4005 5.85897 22.428 5.85897L22.4281 5.86197ZM28.1452 7.79901C28.4437 8.05681 28.7427 8.33479 28.9398 8.66633C29.1858 9.08032 29.3211 9.51903 29.3165 9.88633C29.3135 10.1232 29.202 10.3079 29.0777 10.4936C28.909 10.259 28.7371 10.0263 28.548 9.8033L28.5267 9.69695L28.1665 7.90537L28.1452 7.79901ZM29.4935 11.2161V11.2196H29.4928H29.4914C29.4922 11.2196 29.4927 11.2161 29.4935 11.2161Z" fill="#6CB87F"/>
<path d="M22.4285 5.1956C22.3834 5.19574 22.3388 5.1956 22.2947 5.19912C21.942 5.21633 21.5965 5.29337 21.3841 5.57239C21.1021 5.94299 20.9474 6.39407 21.0548 6.85144C21.1622 7.30879 21.5152 7.73317 22.1211 8.09889C22.6772 8.43451 23.0988 9.04409 23.4694 9.65443C23.84 10.2647 24.1337 10.8731 24.6029 11.1928C25.6618 11.9143 26.4623 12.0586 27.1651 11.9524C27.7841 11.8588 28.3058 11.6045 28.9237 11.4425C29.6752 12.6516 30.1491 13.9812 30.3262 15.3132L30.3599 15.5753L30.8841 15.5054L30.8477 15.2432C30.6604 13.8342 30.1587 12.4318 29.3663 11.1592C29.3723 11.1462 29.3797 11.1335 29.3903 11.1221C29.7308 10.7639 29.9781 10.3485 29.9839 9.89322C29.9906 9.36136 29.8066 8.8216 29.5125 8.3267C28.9242 7.33687 27.9008 6.50133 26.8412 6.4102C25.2682 6.27498 25.6624 6.22273 24.852 5.69937C24.8341 5.68872 24.815 5.68022 24.7951 5.67407C24.7951 5.67407 24.1373 5.44331 23.4022 5.30285C23.0805 5.24137 22.7439 5.19483 22.4285 5.19581L22.4285 5.1956ZM22.4299 5.72257C22.6919 5.72257 23.0025 5.76113 23.3033 5.81864C23.9432 5.94097 24.5119 6.1321 24.5906 6.15897C25.2981 6.62148 25.21 6.80016 26.7946 6.9364C27.5943 7.00515 28.5479 7.73085 29.061 8.59418C29.3175 9.02584 29.4627 9.48585 29.4576 9.88828C29.4533 10.2227 29.348 10.5138 29.1104 10.7666C28.8971 10.4553 28.6657 10.1536 28.4167 9.86221L28.3892 9.72429L28.029 7.93271L27.9768 7.67609L27.4608 7.7797L27.513 8.03632L27.7339 9.13487C26.567 8.00181 25.0968 7.088 23.3479 6.53499L23.0961 6.45403L22.9376 6.95767L23.1894 7.03521C24.0684 7.31313 24.8726 7.68685 25.5993 8.13513L24.4444 8.12951H24.1803V8.65585H24.4424L26.2834 8.66674H26.3794C27.2694 9.33484 28.0195 10.123 28.6218 10.9846C28.0334 11.1512 27.5507 11.3602 27.0848 11.4306C26.4997 11.519 25.8897 11.4302 24.9014 10.7568C24.6338 10.5744 24.3012 10.0087 23.9209 9.38241C23.5406 8.75619 23.0854 8.06474 22.3935 7.6471C21.8637 7.32733 21.634 7.00982 21.5687 6.73175C21.5034 6.45372 21.5854 6.17587 21.802 5.8912C21.8597 5.81538 22.0387 5.73899 22.3208 5.72515C22.356 5.72515 22.3924 5.72163 22.4299 5.72163L22.4299 5.72257Z" fill="#6CB87F"/>
</svg>
